<?xml version="1.0" encoding="UTF-8"?>
<svg width="29px" height="29px" viewBox="0 0 29 29" version="1.1" xmlns="http://www.w3.org/2000/svg" xmlns:xlink="http://www.w3.org/1999/xlink">
    <!-- Generator: Sketch 43.1 (39012) - http://www.bohemiancoding.com/sketch -->
    <title>Shape</title>
    <desc>Created with Sketch.</desc>
    <defs></defs>
    <g id="Our-Work" stroke="none" stroke-width="1" fill="none" fill-rule="evenodd">
        <g id="Our-Work-Mobile" transform="translate(-102.000000, -960.000000)" fill-rule="nonzero" fill="#FFFFFF">
            <g id="Player" transform="translate(26.000000, 700.000000)">
                <g id="View-Discography" transform="translate(76.000000, 260.000000)">
                    <path d="M14.5,0 C6.49145098,0 0,6.49145098 0,14.5 C0,22.508549 6.49145098,29 14.5,29 C22.5076013,29 29,22.508549 29,14.5 C29,6.49145098 22.508549,0 14.5,0 Z M14.5,27.1875 C7.49285131,27.1875 1.8125,21.5071487 1.8125,14.5 C1.8125,7.49285131 7.49285131,1.8125 14.5,1.8125 C21.5071487,1.8125 27.1875,7.49285131 27.1875,14.5 C27.1875,21.5071487 21.5071487,27.1875 14.5,27.1875 Z M17.61075,6.76425 C17.2564003,6.40990033 16.68275,6.40990033 16.3293007,6.76425 L9.39015033,13.7034003 C9.17265033,13.9209003 9.10559967,14.2181503 9.15544935,14.5 C9.10559967,14.7809493 9.17355065,15.0790997 9.39015033,15.2965997 L16.3293007,22.23575 C16.6836977,22.5891993 17.2573007,22.5891993 17.61075,22.23575 C17.9650997,21.8814003 17.9650997,21.30775 17.61075,20.9543007 L11.1564493,14.5 L17.6098023,8.04659967 C17.9641993,7.69225 17.9641993,7.11859967 17.61075,6.76425 Z" id="Shape"></path>
                </g>
            </g>
        </g>
    </g>
</svg>